<svg width="26" height="20" viewBox="0 0 26 20" fill="none" xmlns="http://www.w3.org/2000/svg">
<path d="M23.527 0.656279C22.8922 0.783232 23.2883 0.412529 16.0621 7.63362L9.34379 14.3418L6.26137 11.2645C3.32113 8.3344 3.15863 8.17698 2.86918 8.07034C2.41722 7.89768 1.83832 7.87737 1.42699 8.01956C0.848084 8.21253 0.406287 8.60354 0.157459 9.13167C0.040662 9.38557 0.0254276 9.47698 0.0254276 10C0.0254276 10.9852 -0.284338 10.6094 4.27582 15.1594C7.74418 18.6176 8.23168 19.0848 8.47035 19.1864C8.89691 19.3641 9.28793 19.4149 9.68402 19.3438C10.4305 19.2168 9.88715 19.7196 18.1137 11.5032C26.7821 2.83987 25.9746 3.74886 25.9746 2.68753C25.9746 2.15433 25.9645 2.07815 25.8375 1.82425C25.543 1.22503 25.0454 0.823856 24.4258 0.686747C24.045 0.600418 23.8571 0.595341 23.527 0.656279Z" fill="#BE1522"/>
</svg>
