<svg width="31" height="30" viewBox="0 0 31 30" fill="none" xmlns="http://www.w3.org/2000/svg">
<circle cx="15" cy="15" r="15" fill="#FCC2C0"/>
<path d="M28.527 3.65628C27.8922 3.78323 28.2883 3.41253 21.0621 10.6336L14.3438 17.3418L11.2614 14.2645C8.32113 11.3344 8.15863 11.177 7.86918 11.0703C7.41722 10.8977 6.83832 10.8774 6.42699 11.0196C5.84808 11.2125 5.40629 11.6035 5.15746 12.1317C5.04066 12.3856 5.02543 12.477 5.02543 13C5.02543 13.9852 4.71566 13.6094 9.27582 18.1594C12.7442 21.6176 13.2317 22.0848 13.4704 22.1864C13.8969 22.3641 14.2879 22.4149 14.684 22.3438C15.4305 22.2168 14.8871 22.7196 23.1137 14.5032C31.7821 5.83987 30.9746 6.74886 30.9746 5.68753C30.9746 5.15433 30.9645 5.07815 30.8375 4.82425C30.543 4.22503 30.0454 3.82386 29.4258 3.68675C29.045 3.60042 28.8571 3.59534 28.527 3.65628Z" fill="#BE1522"/>
</svg>
