<svg width="54" height="54" viewBox="0 0 54 54" fill="none" xmlns="http://www.w3.org/2000/svg">
<g clip-path="url(#clip0_93_283)">
<path d="M23.5194 0.168842C12.7405 1.55048 3.78617 9.35517 0.896329 19.881C0.274063 22.1696 0.0842196 23.5091 0.0314852 26.2407C-0.031796 28.9302 0.0631258 30.2591 0.485001 32.3368C1.87719 39.3821 6.11703 45.647 12.1815 49.6337C15.6725 51.9224 19.501 53.3251 23.7303 53.8524C25.3334 54.0528 28.7084 54.0423 30.3748 53.8419C38.2639 52.861 45.3092 48.4419 49.7073 41.713C51.9221 38.3274 53.3354 34.4356 53.8416 30.3751C54.0526 28.6665 54.0526 25.3337 53.8416 23.6251C52.8713 15.7782 48.4733 8.74345 41.8182 4.3665C38.3483 2.08837 34.4881 0.675091 30.3748 0.158295C28.7612 -0.0420952 25.0909 -0.0315475 23.5194 0.168842ZM39.8565 16.6642C40.2151 17.0333 40.3416 17.529 40.2467 18.1724C40.0252 19.5329 35.7221 39.5614 35.5745 39.8989C35.353 40.4052 34.8784 40.8165 34.5092 40.8165C33.9819 40.806 33.3807 40.4263 30.1323 38.0321C28.3393 36.7138 26.81 35.6063 26.7256 35.5747C26.6307 35.5431 25.9135 36.1653 24.7745 37.2411C22.876 39.0657 22.8338 39.0974 22.3592 39.2345C22.0745 39.3188 22.0639 39.3083 22.1061 38.9286C22.1272 38.7177 22.2221 37.431 22.3065 36.0704C22.3909 34.7099 22.4963 33.3493 22.528 33.0434L22.5807 32.495L28.9088 26.7892C32.9377 23.1399 35.2264 21.0095 35.2264 20.8829C35.2264 20.6087 34.8889 20.5243 34.467 20.7036C34.2772 20.788 30.6491 23.045 26.4092 25.7134L18.6995 30.5649L16.0205 29.7317C14.544 29.2677 12.9514 28.772 12.4873 28.6243C11.0846 28.2024 10.726 27.6435 11.4327 27.0212C11.6436 26.8419 12.403 26.4727 13.2995 26.1247C14.1327 25.7977 20.1549 23.4669 26.6834 20.9462C35.9541 17.3708 38.6541 16.3583 39.0444 16.3583C39.4557 16.3477 39.5823 16.4005 39.8565 16.6642Z" fill="#BE1522"/>
</g>
<defs>
<clipPath id="clip0_93_283">
<rect width="54" height="54" fill="white"/>
</clipPath>
</defs>
</svg>
