<svg width="54" height="54" viewBox="0 0 54 54" fill="none" xmlns="http://www.w3.org/2000/svg">
<g clip-path="url(#clip0_93_279)">
<path d="M23.5724 0.158295C18.6997 0.791107 14.2384 2.65791 10.336 5.67431C9.10205 6.63408 7.00322 8.70126 5.98018 9.96689C3.06924 13.5739 1.13916 17.8349 0.316504 22.4755C0.0211914 24.1208 -0.0948242 28.0759 0.0950195 29.8794C0.959863 37.9583 5.42119 45.2251 12.2872 49.7075C15.7044 51.9329 19.554 53.3356 23.7306 53.8524C25.3337 54.0528 28.7087 54.0423 30.3751 53.8419C42.6095 52.3231 52.3231 42.6095 53.8419 30.3751C54.0528 28.6665 54.0528 25.3337 53.8419 23.6251C52.8716 15.7782 48.4735 8.74345 41.8185 4.3665C38.3485 2.08837 34.4884 0.675091 30.3751 0.158295C28.772 -0.0315475 25.0911 -0.0315475 23.5724 0.158295ZM30.6177 10.7579C37.9267 12.1817 43.3056 18.4044 43.6325 25.8399C43.8435 30.586 42.0821 34.8892 38.57 38.2431C33.845 42.7571 26.7786 43.9278 20.8724 41.1645L19.8599 40.6899L15.6517 41.7974C13.3419 42.3985 11.4329 42.8837 11.4118 42.8731C11.3907 42.8626 11.8864 41.0063 12.4981 38.7599L13.6267 34.6677L13.0888 33.5497C12.0024 31.2399 11.6122 29.6263 11.5278 27.0528C11.4856 25.5446 11.5067 25.0595 11.686 23.9942C12.9306 16.738 18.7313 11.3063 26.1036 10.5048C27.0423 10.4099 29.5103 10.5364 30.6177 10.7579Z" fill="#BE1522"/>
<path d="M25.7555 13.1835C20.6508 13.9007 16.4109 17.4444 14.7656 22.3382C14.3227 23.6565 14.1328 24.9222 14.1328 26.5253C14.1328 29.2042 14.734 31.3979 16.0945 33.655L16.4426 34.2351L15.7676 36.703C15.3984 38.0636 15.1031 39.1815 15.1242 39.2026C15.1348 39.2132 16.2844 38.9284 17.666 38.5698L20.1867 37.9054L21.1676 38.4116C23.3086 39.5401 25.1332 39.9937 27.5801 39.9937C29.3203 39.9937 30.6703 39.7827 32.0836 39.2765C36.0809 37.8421 39.1605 34.6358 40.4367 30.5858C40.9008 29.1198 41.059 27.8858 40.9957 26.0507C40.9219 23.8991 40.5633 22.4437 39.6668 20.619C37.8105 16.8854 34.5516 14.312 30.4805 13.3839C29.4469 13.1413 26.8102 13.0358 25.7555 13.1835ZM23.2453 19.4272C23.5195 19.8386 24.7852 22.9815 24.7852 23.2241C24.7852 23.3612 24.5004 23.8464 24.1523 24.3104C23.7727 24.8167 23.5195 25.2597 23.5195 25.4179C23.5195 26.0718 25.3863 28.3077 26.7258 29.2675C27.5379 29.837 28.9828 30.5753 29.4574 30.6597C29.7844 30.7124 29.8477 30.6597 30.3328 30.1007C30.6281 29.7526 31.0184 29.278 31.2082 29.0249C31.4297 28.7507 31.6406 28.5819 31.7777 28.5819C31.9043 28.5819 32.8219 28.9827 33.8133 29.4679C35.1 30.0901 35.6484 30.4171 35.7012 30.5753C35.775 30.8284 35.6168 31.7882 35.4059 32.2944C35.0367 33.1804 33.5074 34.1296 32.2523 34.2456C31.377 34.3194 30.5332 34.1612 29.2148 33.6761C27.8859 33.1804 26.7258 32.6003 25.7449 31.9253C24.7535 31.2503 22.4016 28.93 21.5578 27.7909C19.9969 25.671 19.459 24.4054 19.459 22.8339C19.4695 21.7265 19.691 21.0831 20.3977 20.155C21.0094 19.3429 21.2941 19.1952 22.275 19.1952C23.0027 19.1952 23.1082 19.2163 23.2453 19.4272Z" fill="#BE1522"/>
</g>
<defs>
<clipPath id="clip0_93_279">
<rect width="54" height="54" fill="white"/>
</clipPath>
</defs>
</svg>
