<svg width="30" height="22" viewBox="0 0 30 22" fill="none" xmlns="http://www.w3.org/2000/svg">
<path d="M1.83398 0.552691C1.66406 0.605425 1.52344 0.669878 1.52344 0.699175C1.52344 0.734331 4.44141 3.6816 8.01562 7.25582L14.502 13.748L14.7832 13.789C15.4336 13.8769 14.9297 14.3281 22.0254 7.22066C25.5762 3.66402 28.4766 0.728472 28.4766 0.699175C28.4766 0.669878 28.3242 0.599566 28.1367 0.546831C27.8262 0.458941 26.6602 0.453081 14.9648 0.458941C3.56836 0.4648 2.10352 0.470659 1.83398 0.552691Z" fill="#BE1522"/>
<path d="M0.140621 2.16422C0.0351523 2.40445 0.0292929 2.77945 0.0117148 10.8771C-3.96185e-06 18.2716 0.0117148 19.3791 0.0878867 19.6369C0.134762 19.8009 0.199215 19.9767 0.234371 20.0236C0.281246 20.0939 1.20703 19.1974 4.8457 15.5587L9.40429 11.0002L4.86328 6.45914C2.36718 3.96304 0.304684 1.91812 0.287105 1.91812C0.263668 1.91812 0.199215 2.02945 0.140621 2.16422Z" fill="#BE1522"/>
<path d="M25.1367 6.45914L20.5957 11.0002L25.1543 15.5587C28.793 19.1974 29.7188 20.0939 29.7656 20.0236C29.8008 19.9767 29.8652 19.8009 29.9121 19.6369C29.9883 19.3791 30 18.2716 29.9883 10.8771C29.9707 2.77945 29.9648 2.40445 29.8594 2.16422C29.8008 2.02945 29.7363 1.91812 29.7129 1.91812C29.6953 1.91812 27.6328 3.96304 25.1367 6.45914Z" fill="#BE1522"/>
<path d="M6.01758 16.7422C3.54492 19.2207 1.52344 21.2715 1.52344 21.3008C1.52344 21.3301 1.67578 21.4004 1.86328 21.4531C2.17383 21.541 3.3457 21.5469 15 21.5469C26.6543 21.5469 27.8262 21.541 28.1367 21.4531C28.3242 21.4004 28.4766 21.3301 28.4766 21.3008C28.4766 21.2715 26.4492 19.2148 23.9707 16.7246L19.4648 12.2012L18.0352 13.6133C16.8281 14.8145 16.5527 15.0547 16.2305 15.207C15.4395 15.5938 14.5547 15.5938 13.7754 15.2129C13.4473 15.0547 13.1777 14.8203 11.9766 13.625C11.2031 12.8574 10.5527 12.2305 10.5352 12.2305C10.5234 12.2305 8.48438 14.2578 6.01758 16.7422Z" fill="#BE1522"/>
</svg>
