<svg width="30" height="30" viewBox="0 0 30 30" fill="none" xmlns="http://www.w3.org/2000/svg">
<path d="M1.6582 0.0818672C1.05469 0.275227 0.462891 0.796711 0.1875 1.39437L0.0292969 1.72835L0.0351562 3.1932C0.0351562 4.69905 0.105469 5.52522 0.357422 7.00179C1.68164 14.8768 6.33398 21.744 13.2129 25.9862C14.2148 26.6014 16.2715 27.6385 17.3438 28.0604C20.6074 29.3494 24.2344 30.0526 27.3047 29.9881C28.2598 29.9705 28.2773 29.9705 28.6582 29.783C29.127 29.5487 29.5898 29.0799 29.8125 28.6112L29.9707 28.2713V24.8436V21.4158L29.8125 21.076C29.5195 20.4491 28.8691 19.8983 28.2422 19.7518C28.0957 19.7166 27.4629 19.6639 26.8359 19.6287C25.207 19.5408 23.9531 19.3299 22.623 18.9139C21.8965 18.6912 21.3574 18.6444 20.8594 18.7733C20.373 18.8963 20.3262 18.9315 18.2344 20.5194L16.4824 21.8436L15.8145 21.4627C12.6035 19.6229 10.4238 17.4608 8.60742 14.3026L8.15039 13.5233L9.48047 11.7596C10.2129 10.7928 10.8691 9.91976 10.9453 9.82015C11.1445 9.55062 11.3086 8.95296 11.3086 8.50179C11.3086 8.22054 11.25 7.89827 11.1035 7.40608C10.6465 5.86507 10.4531 4.68148 10.3711 2.98812C10.3242 1.89827 10.2832 1.68148 10.0312 1.19515C9.85547 0.849445 9.39258 0.42757 8.96484 0.216633L8.58398 0.0291328L5.24414 0.0174141C2.5957 0.00569534 1.85156 0.0232735 1.6582 0.0818672Z" fill="#BE1522"/>
</svg>
